<svg width="24.000000" height="24.000000" viewBox="0 0 24 24" fill="none" xmlns="http://www.w3.org/2000/svg" xmlns:xlink="http://www.w3.org/1999/xlink">
	<defs>
		<clipPath id="clip1_1534">
			<rect id="Linear / School / Bookmark" width="24.000000" height="24.000000" fill="white" fill-opacity="0"/>
		</clipPath>
	</defs>
	<g clip-path="url(#clip1_1534)">
		<path id="Vector" d="M21 16.0909C21 19.1875 21 20.7357 20.2659 21.4123C19.9158 21.735 19.4739 21.9377 19.0032 21.9915C18.0159 22.1045 16.8633 21.0849 14.5579 19.0458C13.5388 18.1445 13.0293 17.6938 12.4397 17.5751C12.1494 17.5166 11.8506 17.5166 11.5603 17.5751C10.9707 17.6938 10.4612 18.1445 9.44214 19.0458C7.13672 21.0849 5.98413 22.1045 4.99683 21.9915C4.52612 21.9377 4.08423 21.735 3.73413 21.4123C3 20.7357 3 19.1875 3 16.0909L3 11.0975C3 6.8089 3 4.66461 4.31812 3.33231C5.63599 2 7.75732 2 12 2C16.2427 2 18.364 2 19.6819 3.33231C21 4.66461 21 6.8089 21 11.0975L21 16.0909Z" stroke="#37D8A7" stroke-opacity="1.000000" stroke-width="2.000000"/>
		<path id="Vector" d="M15 6L9 6" stroke="#37D8A7" stroke-opacity="1.000000" stroke-width="2.000000" stroke-linecap="round"/>
	</g>
</svg>
