<svg width="24.000000" height="24.000000" viewBox="0 0 24 24" fill="none" xmlns="http://www.w3.org/2000/svg" xmlns:xlink="http://www.w3.org/1999/xlink">
	<defs>
		<clipPath id="clip1_459">
			<rect id="Broken / Arrows Action / Login 3" rx="5.000000" width="24.000000" height="24.000000" fill="white" fill-opacity="0"/>
		</clipPath>
	</defs>
	<g clip-path="url(#clip1_459)">
		<path id="Vector" d="M8 8C8 5.17157 8 3.75735 8.87866 2.87869C9.75739 2 11.1716 2 14 2L15 2C17.8284 2 19.2426 2 20.1213 2.87869C21 3.75735 21 5.17157 21 8L21 10L21 14L21 16C21 18.8284 21 20.2426 20.1213 21.1213C19.353 21.8897 18.175 21.9861 16 21.9983M8 16C8 18.8284 8 20.2426 8.87866 21.1213C9.51996 21.7626 10.4465 21.9359 12 21.9827" stroke="#9BA5B7" stroke-opacity="1.000000" stroke-width="1.500000"/>
		<path id="Vector" d="M3 9.5L3 14.5C3 16.857 3 18.0355 3.73224 18.7678C4.46448 19.5 5.64301 19.5 8 19.5M8 4.5C5.64301 4.5 4.46448 4.5 3.73224 5.23224" stroke="#9BA5B7" stroke-opacity="1.000000" stroke-width="1.500000"/>
		<path id="Vector" d="M6 12L15 12M12.5 9.5L15 12L12.5 14.5" stroke="#9BA5B7" stroke-opacity="1.000000" stroke-width="1.500000"/>
	</g>
</svg>
