<svg width="16.000000" height="16.000000" viewBox="0 0 16 16" fill="none" xmlns="http://www.w3.org/2000/svg" xmlns:xlink="http://www.w3.org/1999/xlink">
	<desc>
			Created with Pixso.
	</desc>
	<defs/>
	<rect id="vuesax/linear/star" width="16.000000" height="16.000000" fill="#FFFFFF" fill-opacity="0"/>
	<path id="Vector" d="M10.3267 4.68668C10.4867 5.01334 10.9133 5.32668 11.2733 5.38667L13.4 5.74001C14.76 5.96667 15.08 6.95335 14.1 7.92667L12.4467 9.58001C12.1667 9.86001 12.0133 10.4 12.1 10.7867L12.5734 12.8333C12.9467 14.4533 12.0867 15.08 10.6533 14.2333L8.65997 13.0533C8.29999 12.84 7.70667 12.84 7.34003 13.0533L5.34668 14.2333C3.91998 15.08 3.05334 14.4467 3.4267 12.8333L3.90002 10.7867C3.98669 10.4 3.83331 9.86001 3.55334 9.58001L1.90002 7.92667C0.926697 6.95335 1.23999 5.96667 2.59998 5.74001L4.72668 5.38667C5.08002 5.32668 5.50665 5.01334 5.66669 4.68668L6.84003 2.34001C7.47998 1.06667 8.52002 1.06667 9.15332 2.34001L10.3267 4.68668Z" stroke="#FFBD6D" stroke-opacity="1.000000" stroke-width="1.500000" stroke-linejoin="round"/>
	<g opacity="0.000000"/>
</svg>
